<svg width="105" height="15" viewBox="0 0 105 15" fill="none" xmlns="http://www.w3.org/2000/svg">
<path id="Downloading..." d="M4.382 1.228C5.40867 1.228 6.30933 1.42867 7.084 1.83C7.868 2.23133 8.47 2.80533 8.89 3.552C9.31933 4.28933 9.534 5.148 9.534 6.128C9.534 7.108 9.31933 7.96667 8.89 8.704C8.47 9.432 7.868 9.99667 7.084 10.398C6.30933 10.7993 5.40867 11 4.382 11H0.966V1.228H4.382ZM4.312 9.334C5.33867 9.334 6.132 9.054 6.692 8.494C7.252 7.934 7.532 7.14533 7.532 6.128C7.532 5.11067 7.252 4.31733 6.692 3.748C6.132 3.16933 5.33867 2.88 4.312 2.88H2.926V9.334H4.312ZM14.4452 11.126C13.6985 11.126 13.0265 10.9627 12.4292 10.636C11.8318 10.3 11.3605 9.82867 11.0152 9.222C10.6792 8.61533 10.5112 7.91533 10.5112 7.122C10.5112 6.32867 10.6838 5.62867 11.0292 5.022C11.3838 4.41533 11.8645 3.94867 12.4712 3.622C13.0778 3.286 13.7545 3.118 14.5012 3.118C15.2478 3.118 15.9245 3.286 16.5312 3.622C17.1378 3.94867 17.6138 4.41533 17.9592 5.022C18.3138 5.62867 18.4912 6.32867 18.4912 7.122C18.4912 7.91533 18.3092 8.61533 17.9452 9.222C17.5905 9.82867 17.1052 10.3 16.4892 10.636C15.8825 10.9627 15.2012 11.126 14.4452 11.126ZM14.4452 9.418C14.7998 9.418 15.1312 9.334 15.4392 9.166C15.7565 8.98867 16.0085 8.72733 16.1952 8.382C16.3818 8.03667 16.4752 7.61667 16.4752 7.122C16.4752 6.38467 16.2792 5.82 15.8872 5.428C15.5045 5.02667 15.0332 4.826 14.4732 4.826C13.9132 4.826 13.4418 5.02667 13.0592 5.428C12.6858 5.82 12.4992 6.38467 12.4992 7.122C12.4992 7.85933 12.6812 8.42867 13.0452 8.83C13.4185 9.222 13.8852 9.418 14.4452 9.418ZM30.6809 3.244L28.4129 11H26.2989L24.8849 5.582L23.4709 11H21.3429L19.0609 3.244H21.0489L22.4209 9.152L23.9049 3.244H25.9769L27.4329 9.138L28.8049 3.244H30.6809ZM36.0394 3.132C36.9634 3.132 37.7101 3.426 38.2794 4.014C38.8487 4.59267 39.1334 5.40467 39.1334 6.45V11H37.1734V6.716C37.1734 6.1 37.0194 5.62867 36.7114 5.302C36.4034 4.966 35.9834 4.798 35.4514 4.798C34.9101 4.798 34.4807 4.966 34.1634 5.302C33.8554 5.62867 33.7014 6.1 33.7014 6.716V11H31.7414V3.244H33.7014V4.21C33.9627 3.874 34.2941 3.61267 34.6954 3.426C35.1061 3.23 35.5541 3.132 36.0394 3.132ZM42.9573 0.64V11H40.9973V0.64H42.9573ZM48.3377 11.126C47.5911 11.126 46.9191 10.9627 46.3217 10.636C45.7244 10.3 45.2531 9.82867 44.9077 9.222C44.5717 8.61533 44.4037 7.91533 44.4037 7.122C44.4037 6.32867 44.5764 5.62867 44.9217 5.022C45.2764 4.41533 45.7571 3.94867 46.3637 3.622C46.9704 3.286 47.6471 3.118 48.3937 3.118C49.1404 3.118 49.8171 3.286 50.4237 3.622C51.0304 3.94867 51.5064 4.41533 51.8517 5.022C52.2064 5.62867 52.3837 6.32867 52.3837 7.122C52.3837 7.91533 52.2017 8.61533 51.8377 9.222C51.4831 9.82867 50.9977 10.3 50.3817 10.636C49.7751 10.9627 49.0937 11.126 48.3377 11.126ZM48.3377 9.418C48.6924 9.418 49.0237 9.334 49.3317 9.166C49.6491 8.98867 49.9011 8.72733 50.0877 8.382C50.2744 8.03667 50.3677 7.61667 50.3677 7.122C50.3677 6.38467 50.1717 5.82 49.7797 5.428C49.3971 5.02667 48.9257 4.826 48.3657 4.826C47.8057 4.826 47.3344 5.02667 46.9517 5.428C46.5784 5.82 46.3917 6.38467 46.3917 7.122C46.3917 7.85933 46.5737 8.42867 46.9377 8.83C47.3111 9.222 47.7777 9.418 48.3377 9.418ZM53.3175 7.094C53.3175 6.31 53.4715 5.61467 53.7795 5.008C54.0968 4.40133 54.5215 3.93467 55.0535 3.608C55.5948 3.28133 56.1968 3.118 56.8595 3.118C57.4381 3.118 57.9421 3.23467 58.3715 3.468C58.8101 3.70133 59.1601 3.99533 59.4215 4.35V3.244H61.3955V11H59.4215V9.866C59.1695 10.23 58.8195 10.5333 58.3715 10.776C57.9328 11.0093 57.4241 11.126 56.8455 11.126C56.1921 11.126 55.5948 10.958 55.0535 10.622C54.5215 10.286 54.0968 9.81467 53.7795 9.208C53.4715 8.592 53.3175 7.88733 53.3175 7.094ZM59.4215 7.122C59.4215 6.646 59.3281 6.24 59.1415 5.904C58.9548 5.55867 58.7028 5.29733 58.3855 5.12C58.0681 4.93333 57.7275 4.84 57.3635 4.84C56.9995 4.84 56.6635 4.92867 56.3555 5.106C56.0475 5.28333 55.7955 5.54467 55.5995 5.89C55.4128 6.226 55.3195 6.62733 55.3195 7.094C55.3195 7.56067 55.4128 7.97133 55.5995 8.326C55.7955 8.67133 56.0475 8.93733 56.3555 9.124C56.6728 9.31067 57.0088 9.404 57.3635 9.404C57.7275 9.404 58.0681 9.31533 58.3855 9.138C58.7028 8.95133 58.9548 8.69 59.1415 8.354C59.3281 8.00867 59.4215 7.598 59.4215 7.122ZM62.8057 7.094C62.8057 6.31 62.9597 5.61467 63.2677 5.008C63.5851 4.40133 64.0144 3.93467 64.5558 3.608C65.0971 3.28133 65.6991 3.118 66.3618 3.118C66.8658 3.118 67.3464 3.23 67.8038 3.454C68.2611 3.66867 68.6251 3.958 68.8958 4.322V0.64H70.8838V11H68.8958V9.852C68.6531 10.2347 68.3124 10.5427 67.8738 10.776C67.4351 11.0093 66.9264 11.126 66.3478 11.126C65.6944 11.126 65.0971 10.958 64.5558 10.622C64.0144 10.286 63.5851 9.81467 63.2677 9.208C62.9597 8.592 62.8057 7.88733 62.8057 7.094ZM68.9098 7.122C68.9098 6.646 68.8164 6.24 68.6298 5.904C68.4431 5.55867 68.1911 5.29733 67.8738 5.12C67.5564 4.93333 67.2158 4.84 66.8518 4.84C66.4878 4.84 66.1518 4.92867 65.8438 5.106C65.5358 5.28333 65.2838 5.54467 65.0878 5.89C64.9011 6.226 64.8078 6.62733 64.8078 7.094C64.8078 7.56067 64.9011 7.97133 65.0878 8.326C65.2838 8.67133 65.5358 8.93733 65.8438 9.124C66.1611 9.31067 66.4971 9.404 66.8518 9.404C67.2158 9.404 67.5564 9.31533 67.8738 9.138C68.1911 8.95133 68.4431 8.69 68.6298 8.354C68.8164 8.00867 68.9098 7.598 68.9098 7.122ZM73.792 2.32C73.4467 2.32 73.1574 2.21267 72.924 1.998C72.7 1.774 72.588 1.49867 72.588 1.172C72.588 0.845333 72.7 0.574666 72.924 0.359999C73.1574 0.135999 73.4467 0.0239995 73.792 0.0239995C74.1374 0.0239995 74.422 0.135999 74.646 0.359999C74.8794 0.574666 74.996 0.845333 74.996 1.172C74.996 1.49867 74.8794 1.774 74.646 1.998C74.422 2.21267 74.1374 2.32 73.792 2.32ZM74.758 3.244V11H72.798V3.244H74.758ZM80.9925 3.132C81.9165 3.132 82.6632 3.426 83.2325 4.014C83.8018 4.59267 84.0865 5.40467 84.0865 6.45V11H82.1265V6.716C82.1265 6.1 81.9725 5.62867 81.6645 5.302C81.3565 4.966 80.9365 4.798 80.4045 4.798C79.8632 4.798 79.4338 4.966 79.1165 5.302C78.8085 5.62867 78.6545 6.1 78.6545 6.716V11H76.6945V3.244H78.6545V4.21C78.9158 3.874 79.2472 3.61267 79.6485 3.426C80.0592 3.23 80.5072 3.132 80.9925 3.132ZM88.9884 3.118C89.567 3.118 90.0757 3.23467 90.5144 3.468C90.953 3.692 91.2984 3.986 91.5504 4.35V3.244H93.5244V11.056C93.5244 11.7747 93.3797 12.414 93.0904 12.974C92.801 13.5433 92.367 13.9913 91.7884 14.318C91.2097 14.654 90.5097 14.822 89.6884 14.822C88.587 14.822 87.6817 14.5653 86.9724 14.052C86.2724 13.5387 85.8757 12.8387 85.7824 11.952H87.7284C87.831 12.3067 88.0504 12.5867 88.3864 12.792C88.7317 13.0067 89.147 13.114 89.6324 13.114C90.2017 13.114 90.6637 12.9413 91.0184 12.596C91.373 12.26 91.5504 11.7467 91.5504 11.056V9.852C91.2984 10.216 90.9484 10.5193 90.5004 10.762C90.0617 11.0047 89.5577 11.126 88.9884 11.126C88.335 11.126 87.7377 10.958 87.1964 10.622C86.655 10.286 86.2257 9.81467 85.9084 9.208C85.6004 8.592 85.4464 7.88733 85.4464 7.094C85.4464 6.31 85.6004 5.61467 85.9084 5.008C86.2257 4.40133 86.6504 3.93467 87.1824 3.608C87.7237 3.28133 88.3257 3.118 88.9884 3.118ZM91.5504 7.122C91.5504 6.646 91.457 6.24 91.2704 5.904C91.0837 5.55867 90.8317 5.29733 90.5144 5.12C90.197 4.93333 89.8564 4.84 89.4924 4.84C89.1284 4.84 88.7924 4.92867 88.4844 5.106C88.1764 5.28333 87.9244 5.54467 87.7284 5.89C87.5417 6.226 87.4484 6.62733 87.4484 7.094C87.4484 7.56067 87.5417 7.97133 87.7284 8.326C87.9244 8.67133 88.1764 8.93733 88.4844 9.124C88.8017 9.31067 89.1377 9.404 89.4924 9.404C89.8564 9.404 90.197 9.31533 90.5144 9.138C90.8317 8.95133 91.0837 8.69 91.2704 8.354C91.457 8.00867 91.5504 7.598 91.5504 7.122ZM96.3067 11.098C95.952 11.098 95.658 10.9907 95.4247 10.776C95.2007 10.552 95.0887 10.2767 95.0887 9.95C95.0887 9.62333 95.2007 9.35267 95.4247 9.138C95.658 8.914 95.952 8.802 96.3067 8.802C96.652 8.802 96.9367 8.914 97.1607 9.138C97.3847 9.35267 97.4967 9.62333 97.4967 9.95C97.4967 10.2767 97.3847 10.552 97.1607 10.776C96.9367 10.9907 96.652 11.098 96.3067 11.098ZM99.9434 11.098C99.5887 11.098 99.2947 10.9907 99.0614 10.776C98.8374 10.552 98.7254 10.2767 98.7254 9.95C98.7254 9.62333 98.8374 9.35267 99.0614 9.138C99.2947 8.914 99.5887 8.802 99.9434 8.802C100.289 8.802 100.573 8.914 100.797 9.138C101.021 9.35267 101.133 9.62333 101.133 9.95C101.133 10.2767 101.021 10.552 100.797 10.776C100.573 10.9907 100.289 11.098 99.9434 11.098ZM103.58 11.098C103.225 11.098 102.931 10.9907 102.698 10.776C102.474 10.552 102.362 10.2767 102.362 9.95C102.362 9.62333 102.474 9.35267 102.698 9.138C102.931 8.914 103.225 8.802 103.58 8.802C103.925 8.802 104.21 8.914 104.434 9.138C104.658 9.35267 104.77 9.62333 104.77 9.95C104.77 10.2767 104.658 10.552 104.434 10.776C104.21 10.9907 103.925 11.098 103.58 11.098Z" fill="#294ABF"/>
</svg>
