<svg width="543" height="132" viewBox="0 0 543 132" fill="none" xmlns="http://www.w3.org/2000/svg">
<g clip-path="url(#clip0)">
<path d="M463.46 123.608C471.019 124.264 478.575 124.97 486.113 125.7L502.756 88.8637L518.576 129.098C526.693 130.009 534.806 130.966 542.894 131.965L515.16 61.4117L542.903 0.000822063H519.406L519.162 0.302492L504.175 33.4781L491.017 0.0056877H467.817L491.768 60.9316L463.461 123.608H463.46ZM445.914 122.164V0.000822063H422.723V120.45C430.458 120.985 438.197 121.559 445.914 122.162V122.164ZM271.705 115.333C277.965 115.333 284.219 115.375 290.461 115.42V70.5396H318.32V51.4274H290.463V19.1358H322.549V0.000822063H267.181V115.349C268.685 115.349 270.196 115.328 271.705 115.333ZM199.702 116.501C207.428 116.254 215.161 116.046 222.905 115.878V19.139H244.582V0.0056877H178.025V19.139H199.705V116.501H199.702ZM22.3369 129.381V56.5996L49.7964 126.443C58.2408 125.593 66.698 124.793 75.1786 124.037V0.00244394H52.9266V75.3923L23.2959 0.00244394H0.090332V131.998H0.229656C7.58125 131.086 14.9582 130.22 22.3369 129.381ZM155.663 19.1341V0.00244394H100.289V121.969C118.713 120.544 137.157 119.349 155.617 118.383V99.234C144.913 99.7919 134.23 100.434 123.573 101.149V70.5478H151.432V51.4242H123.573V19.1341H155.663ZM368.509 98.3192V-0.00404358H345.217V116.57C363.745 117.18 382.201 118.03 400.596 119.1V99.9395C389.92 99.3215 379.227 98.7847 368.509 98.3176" fill="#E50914"/>
</g>
<defs>
<clipPath id="clip0">
<rect width="543" height="132" fill="white"/>
</clipPath>
</defs>
</svg>
