<svg width="113" height="15" viewBox="0 0 113 15" fill="none" xmlns="http://www.w3.org/2000/svg">
<path id="Stranger Things" d="M4.34 11.098C3.65867 11.098 3.04267 10.9813 2.492 10.748C1.95067 10.5147 1.52133 10.1787 1.204 9.74C0.886667 9.30133 0.723333 8.78333 0.714 8.186H2.814C2.842 8.58733 2.982 8.90467 3.234 9.138C3.49533 9.37133 3.85 9.488 4.298 9.488C4.75533 9.488 5.11467 9.38067 5.376 9.166C5.63733 8.942 5.768 8.65267 5.768 8.298C5.768 8.00867 5.67933 7.77067 5.502 7.584C5.32467 7.39733 5.10067 7.25267 4.83 7.15C4.56867 7.038 4.20467 6.91667 3.738 6.786C3.10333 6.59933 2.58533 6.41733 2.184 6.24C1.792 6.05333 1.45133 5.778 1.162 5.414C0.882 5.04067 0.742 4.546 0.742 3.93C0.742 3.35133 0.886667 2.84733 1.176 2.418C1.46533 1.98867 1.87133 1.662 2.394 1.438C2.91667 1.20467 3.514 1.088 4.186 1.088C5.194 1.088 6.01067 1.33533 6.636 1.83C7.27067 2.31533 7.62067 2.99667 7.686 3.874H5.53C5.51133 3.538 5.36667 3.26267 5.096 3.048C4.83467 2.824 4.48467 2.712 4.046 2.712C3.66333 2.712 3.35533 2.81 3.122 3.006C2.898 3.202 2.786 3.48667 2.786 3.86C2.786 4.12133 2.87 4.34067 3.038 4.518C3.21533 4.686 3.43 4.826 3.682 4.938C3.94333 5.04067 4.30733 5.162 4.774 5.302C5.40867 5.48867 5.92667 5.67533 6.328 5.862C6.72933 6.04867 7.07467 6.32867 7.364 6.702C7.65333 7.07533 7.798 7.56533 7.798 8.172C7.798 8.69467 7.66267 9.18 7.392 9.628C7.12133 10.076 6.72467 10.4353 6.202 10.706C5.67933 10.9673 5.05867 11.098 4.34 11.098ZM11.7793 4.854V8.606C11.7793 8.86733 11.8399 9.05867 11.9613 9.18C12.0919 9.292 12.3066 9.348 12.6053 9.348H13.5153V11H12.2833C10.6313 11 9.80525 10.1973 9.80525 8.592V4.854H8.88125V3.244H9.80525V1.326H11.7793V3.244H13.5153V4.854H11.7793ZM16.885 4.448C17.137 4.03733 17.4637 3.71533 17.865 3.482C18.2757 3.24867 18.7423 3.132 19.265 3.132V5.19H18.747C18.131 5.19 17.6643 5.33467 17.347 5.624C17.039 5.91333 16.885 6.41733 16.885 7.136V11H14.925V3.244H16.885V4.448ZM20.0811 7.094C20.0811 6.31 20.2351 5.61467 20.5431 5.008C20.8605 4.40133 21.2851 3.93467 21.8171 3.608C22.3585 3.28133 22.9605 3.118 23.6231 3.118C24.2018 3.118 24.7058 3.23467 25.1351 3.468C25.5738 3.70133 25.9238 3.99533 26.1851 4.35V3.244H28.1591V11H26.1851V9.866C25.9331 10.23 25.5831 10.5333 25.1351 10.776C24.6965 11.0093 24.1878 11.126 23.6091 11.126C22.9558 11.126 22.3585 10.958 21.8171 10.622C21.2851 10.286 20.8605 9.81467 20.5431 9.208C20.2351 8.592 20.0811 7.88733 20.0811 7.094ZM26.1851 7.122C26.1851 6.646 26.0918 6.24 25.9051 5.904C25.7185 5.55867 25.4665 5.29733 25.1491 5.12C24.8318 4.93333 24.4911 4.84 24.1271 4.84C23.7631 4.84 23.4271 4.92867 23.1191 5.106C22.8111 5.28333 22.5591 5.54467 22.3631 5.89C22.1765 6.226 22.0831 6.62733 22.0831 7.094C22.0831 7.56067 22.1765 7.97133 22.3631 8.326C22.5591 8.67133 22.8111 8.93733 23.1191 9.124C23.4365 9.31067 23.7725 9.404 24.1271 9.404C24.4911 9.404 24.8318 9.31533 25.1491 9.138C25.4665 8.95133 25.7185 8.69 25.9051 8.354C26.0918 8.00867 26.1851 7.598 26.1851 7.122ZM34.3714 3.132C35.2954 3.132 36.0421 3.426 36.6114 4.014C37.1808 4.59267 37.4654 5.40467 37.4654 6.45V11H35.5054V6.716C35.5054 6.1 35.3514 5.62867 35.0434 5.302C34.7354 4.966 34.3154 4.798 33.7834 4.798C33.2421 4.798 32.8128 4.966 32.4954 5.302C32.1874 5.62867 32.0334 6.1 32.0334 6.716V11H30.0734V3.244H32.0334V4.21C32.2948 3.874 32.6261 3.61267 33.0274 3.426C33.4381 3.23 33.8861 3.132 34.3714 3.132ZM42.3673 3.118C42.9459 3.118 43.4546 3.23467 43.8933 3.468C44.3319 3.692 44.6773 3.986 44.9293 4.35V3.244H46.9033V11.056C46.9033 11.7747 46.7586 12.414 46.4693 12.974C46.1799 13.5433 45.7459 13.9913 45.1673 14.318C44.5886 14.654 43.8886 14.822 43.0673 14.822C41.9659 14.822 41.0606 14.5653 40.3513 14.052C39.6513 13.5387 39.2546 12.8387 39.1613 11.952H41.1073C41.2099 12.3067 41.4293 12.5867 41.7653 12.792C42.1106 13.0067 42.5259 13.114 43.0113 13.114C43.5806 13.114 44.0426 12.9413 44.3973 12.596C44.7519 12.26 44.9293 11.7467 44.9293 11.056V9.852C44.6773 10.216 44.3273 10.5193 43.8793 10.762C43.4406 11.0047 42.9366 11.126 42.3673 11.126C41.7139 11.126 41.1166 10.958 40.5753 10.622C40.0339 10.286 39.6046 9.81467 39.2873 9.208C38.9793 8.592 38.8253 7.88733 38.8253 7.094C38.8253 6.31 38.9793 5.61467 39.2873 5.008C39.6046 4.40133 40.0293 3.93467 40.5613 3.608C41.1026 3.28133 41.7046 3.118 42.3673 3.118ZM44.9293 7.122C44.9293 6.646 44.8359 6.24 44.6493 5.904C44.4626 5.55867 44.2106 5.29733 43.8933 5.12C43.5759 4.93333 43.2353 4.84 42.8713 4.84C42.5073 4.84 42.1713 4.92867 41.8633 5.106C41.5553 5.28333 41.3033 5.54467 41.1073 5.89C40.9206 6.226 40.8273 6.62733 40.8273 7.094C40.8273 7.56067 40.9206 7.97133 41.1073 8.326C41.3033 8.67133 41.5553 8.93733 41.8633 9.124C42.1806 9.31067 42.5166 9.404 42.8713 9.404C43.2353 9.404 43.5759 9.31533 43.8933 9.138C44.2106 8.95133 44.4626 8.69 44.6493 8.354C44.8359 8.00867 44.9293 7.598 44.9293 7.122ZM56.0276 6.954C56.0276 7.234 56.0089 7.486 55.9716 7.71H50.3016C50.3482 8.27 50.5442 8.70867 50.8896 9.026C51.2349 9.34333 51.6596 9.502 52.1636 9.502C52.8916 9.502 53.4096 9.18933 53.7176 8.564H55.8316C55.6076 9.31067 55.1782 9.92667 54.5436 10.412C53.9089 10.888 53.1296 11.126 52.2056 11.126C51.4589 11.126 50.7869 10.9627 50.1896 10.636C49.6016 10.3 49.1396 9.82867 48.8036 9.222C48.4769 8.61533 48.3136 7.91533 48.3136 7.122C48.3136 6.31933 48.4769 5.61467 48.8036 5.008C49.1302 4.40133 49.5876 3.93467 50.1756 3.608C50.7636 3.28133 51.4402 3.118 52.2056 3.118C52.9429 3.118 53.6009 3.27667 54.1796 3.594C54.7676 3.91133 55.2202 4.364 55.5376 4.952C55.8642 5.53067 56.0276 6.198 56.0276 6.954ZM53.9976 6.394C53.9882 5.89 53.8062 5.48867 53.4516 5.19C53.0969 4.882 52.6629 4.728 52.1496 4.728C51.6642 4.728 51.2536 4.87733 50.9176 5.176C50.5909 5.46533 50.3902 5.87133 50.3156 6.394H53.9976ZM59.4182 4.448C59.6702 4.03733 59.9969 3.71533 60.3982 3.482C60.8089 3.24867 61.2755 3.132 61.7982 3.132V5.19H61.2802C60.6642 5.19 60.1975 5.33467 59.8802 5.624C59.5722 5.91333 59.4182 6.41733 59.4182 7.136V11H57.4582V3.244H59.4182V4.448ZM73.1043 1.228V2.81H70.5003V11H68.5403V2.81H65.9363V1.228H73.1043ZM78.9024 3.132C79.4904 3.132 80.013 3.26267 80.4704 3.524C80.9277 3.776 81.2824 4.154 81.5344 4.658C81.7957 5.15267 81.9264 5.75 81.9264 6.45V11H79.9664V6.716C79.9664 6.1 79.8124 5.62867 79.5044 5.302C79.1964 4.966 78.7764 4.798 78.2444 4.798C77.703 4.798 77.2737 4.966 76.9564 5.302C76.6484 5.62867 76.4944 6.1 76.4944 6.716V11H74.5344V0.64H76.4944V4.21C76.7464 3.874 77.0824 3.61267 77.5024 3.426C77.9224 3.23 78.389 3.132 78.9024 3.132ZM84.7842 2.32C84.4389 2.32 84.1496 2.21267 83.9162 1.998C83.6922 1.774 83.5802 1.49867 83.5802 1.172C83.5802 0.845333 83.6922 0.574666 83.9162 0.359999C84.1496 0.135999 84.4389 0.0239995 84.7842 0.0239995C85.1296 0.0239995 85.4142 0.135999 85.6382 0.359999C85.8716 0.574666 85.9882 0.845333 85.9882 1.172C85.9882 1.49867 85.8716 1.774 85.6382 1.998C85.4142 2.21267 85.1296 2.32 84.7842 2.32ZM85.7502 3.244V11H83.7902V3.244H85.7502ZM91.9847 3.132C92.9087 3.132 93.6554 3.426 94.2247 4.014C94.794 4.59267 95.0787 5.40467 95.0787 6.45V11H93.1187V6.716C93.1187 6.1 92.9647 5.62867 92.6567 5.302C92.3487 4.966 91.9287 4.798 91.3967 4.798C90.8554 4.798 90.426 4.966 90.1087 5.302C89.8007 5.62867 89.6467 6.1 89.6467 6.716V11H87.6867V3.244H89.6467V4.21C89.908 3.874 90.2394 3.61267 90.6407 3.426C91.0514 3.23 91.4994 3.132 91.9847 3.132ZM99.9806 3.118C100.559 3.118 101.068 3.23467 101.507 3.468C101.945 3.692 102.291 3.986 102.543 4.35V3.244H104.517V11.056C104.517 11.7747 104.372 12.414 104.083 12.974C103.793 13.5433 103.359 13.9913 102.781 14.318C102.202 14.654 101.502 14.822 100.681 14.822C99.5792 14.822 98.6739 14.5653 97.9646 14.052C97.2646 13.5387 96.8679 12.8387 96.7746 11.952H98.7206C98.8232 12.3067 99.0426 12.5867 99.3786 12.792C99.7239 13.0067 100.139 13.114 100.625 13.114C101.194 13.114 101.656 12.9413 102.011 12.596C102.365 12.26 102.543 11.7467 102.543 11.056V9.852C102.291 10.216 101.941 10.5193 101.493 10.762C101.054 11.0047 100.55 11.126 99.9806 11.126C99.3272 11.126 98.7299 10.958 98.1886 10.622C97.6472 10.286 97.2179 9.81467 96.9006 9.208C96.5926 8.592 96.4386 7.88733 96.4386 7.094C96.4386 6.31 96.5926 5.61467 96.9006 5.008C97.2179 4.40133 97.6426 3.93467 98.1746 3.608C98.7159 3.28133 99.3179 3.118 99.9806 3.118ZM102.543 7.122C102.543 6.646 102.449 6.24 102.263 5.904C102.076 5.55867 101.824 5.29733 101.507 5.12C101.189 4.93333 100.849 4.84 100.485 4.84C100.121 4.84 99.7846 4.92867 99.4766 5.106C99.1686 5.28333 98.9166 5.54467 98.7206 5.89C98.5339 6.226 98.4406 6.62733 98.4406 7.094C98.4406 7.56067 98.5339 7.97133 98.7206 8.326C98.9166 8.67133 99.1686 8.93733 99.4766 9.124C99.7939 9.31067 100.13 9.404 100.485 9.404C100.849 9.404 101.189 9.31533 101.507 9.138C101.824 8.95133 102.076 8.69 102.263 8.354C102.449 8.00867 102.543 7.598 102.543 7.122ZM109.399 11.126C108.764 11.126 108.195 11.014 107.691 10.79C107.187 10.5567 106.786 10.244 106.487 9.852C106.198 9.46 106.039 9.026 106.011 8.55H107.985C108.022 8.84867 108.167 9.096 108.419 9.292C108.68 9.488 109.002 9.586 109.385 9.586C109.758 9.586 110.048 9.51133 110.253 9.362C110.468 9.21267 110.575 9.02133 110.575 8.788C110.575 8.536 110.444 8.34933 110.183 8.228C109.931 8.09733 109.525 7.95733 108.965 7.808C108.386 7.668 107.91 7.52333 107.537 7.374C107.173 7.22467 106.856 6.996 106.585 6.688C106.324 6.38 106.193 5.96467 106.193 5.442C106.193 5.01267 106.314 4.62067 106.557 4.266C106.809 3.91133 107.164 3.63133 107.621 3.426C108.088 3.22067 108.634 3.118 109.259 3.118C110.183 3.118 110.92 3.35133 111.471 3.818C112.022 4.27533 112.325 4.896 112.381 5.68H110.505C110.477 5.372 110.346 5.12933 110.113 4.952C109.889 4.76533 109.586 4.672 109.203 4.672C108.848 4.672 108.573 4.73733 108.377 4.868C108.19 4.99867 108.097 5.18067 108.097 5.414C108.097 5.67533 108.228 5.876 108.489 6.016C108.75 6.14667 109.156 6.282 109.707 6.422C110.267 6.562 110.729 6.70667 111.093 6.856C111.457 7.00533 111.77 7.23867 112.031 7.556C112.302 7.864 112.442 8.27467 112.451 8.788C112.451 9.236 112.325 9.63733 112.073 9.992C111.83 10.3467 111.476 10.6267 111.009 10.832C110.552 11.028 110.015 11.126 109.399 11.126Z" fill="white"/>
</svg>
